<svg xmlns="http://www.w3.org/2000/svg" xmlns:xlink="http://www.w3.org/1999/xlink" version="1.1" x="0px" y="0px" viewBox="0 0 160 200" style="enable-background:new 0 0 160 160;" xml:space="preserve"><g><path d="M33.411,75.272c30.233,9.155,62.759,9.154,92.996,0v-12.44H33.411V75.272z"/><path d="M126.406,50.72c0-25.465-20.86-46.194-46.504-46.194c-25.632,0-46.492,20.729-46.492,46.194v8.78h92.996V50.72z"/><path d="M115.539,151.243c-3.765-1.388-6.333-4.524-6.97-7.831c-0.122-0.394-0.114-0.849-0.186-1.251l-0.042-0.307l-0.022-0.152   l-0.056-0.274l-0.237-1.103l-0.255-1.111c-0.1-0.368-0.247-0.725-0.374-1.091c-0.278-0.722-0.507-1.477-0.904-2.161   c-1.385-2.839-3.553-5.428-6.28-7.364c-2.725-1.938-5.996-3.227-9.479-3.666c-3.479-0.447-7.181-0.008-10.599,1.314   c-0.082,0.037-0.152,0.088-0.23,0.129c-0.078-0.041-0.148-0.093-0.23-0.129c-3.417-1.322-7.12-1.761-10.599-1.314   c-3.484,0.44-6.754,1.728-9.479,3.666c-2.728,1.936-4.895,4.525-6.28,7.364c-0.397,0.684-0.626,1.439-0.904,2.161   c-0.127,0.365-0.274,0.723-0.374,1.091l-0.255,1.111l-0.237,1.103l-0.056,0.274l-0.022,0.152l-0.042,0.307   c-0.071,0.402-0.064,0.857-0.186,1.251c-0.636,3.307-3.205,6.443-6.97,7.831c-1.864,0.693-3.982,0.938-6.114,0.621   c-2.133-0.309-4.262-1.189-6.166-2.538c1.41,1.844,3.277,3.455,5.527,4.539c2.242,1.089,4.843,1.638,7.501,1.511   c2.656-0.12,5.369-0.913,7.802-2.374c2.433-1.45,4.587-3.583,6.082-6.146c0.416-0.624,0.683-1.305,1.024-1.974l0.24-0.508   l0.119-0.255l0.085-0.133l0.328-0.527l0.309-0.519c0.111-0.166,0.257-0.307,0.378-0.46c0.263-0.292,0.455-0.62,0.769-0.849   c1.073-1.044,2.335-1.723,3.618-2.049c0.816-0.207,1.85-0.133,2.887,0.066c3.63,0.699,7.411-0.081,10.284-2.408   c0.328-0.266,0.616-0.517,0.841-0.743c0.042-0.042,0.078-0.085,0.119-0.127c0.041,0.042,0.077,0.086,0.119,0.127   c0.225,0.226,0.513,0.477,0.841,0.743c2.873,2.327,6.654,3.107,10.284,2.408c1.037-0.199,2.071-0.273,2.887-0.066   c1.283,0.326,2.544,1.005,3.618,2.049c0.313,0.229,0.506,0.557,0.769,0.849c0.121,0.153,0.267,0.294,0.378,0.46l0.309,0.519   l0.328,0.527l0.085,0.133l0.119,0.255l0.24,0.508c0.341,0.669,0.608,1.35,1.024,1.974c1.495,2.563,3.649,4.696,6.082,6.146   c2.433,1.46,5.146,2.253,7.802,2.374c2.658,0.126,5.259-0.423,7.501-1.511c2.25-1.084,4.117-2.695,5.527-4.539   c-1.904,1.349-4.033,2.229-6.166,2.538C119.521,152.181,117.402,151.937,115.539,151.243z"/><path d="M92.076,99.144c-0.315,0.023-0.633,0.031-0.949,0.052c-0.045,0.508-0.074,1.02-0.074,1.54c0,9.809,7.981,17.79,17.79,17.79   c4.985,0,9.491-2.067,12.724-5.382v29.316c0,1.399,1.134,2.533,2.533,2.533c1.399,0,2.533-1.134,2.533-2.533v-41.724   c0-2.692-0.62-5.234-1.7-7.52c-0.304,0.088-0.605,0.188-0.909,0.275c-2.008,0.571-4.064,1.096-6.128,1.594   c1.032,1.641,1.644,3.572,1.644,5.651c0,5.899-4.799,10.697-10.697,10.697c-5.898,0-10.697-4.798-10.697-10.697   c0-0.753,0.084-1.487,0.233-2.196C96.287,98.777,94.179,98.988,92.076,99.144z"/><path d="M151.086,75.203c-1.129-2.618-4.2-3.828-6.841-2.699c-40.885,17.522-87.786,17.522-128.672,0   c-0.675-0.291-1.373-0.419-2.071-0.419c-2.013,0-3.933,1.164-4.782,3.118c-0.547,1.256-0.559,2.641-0.058,3.921   c0.512,1.28,1.501,2.292,2.769,2.839c21.664,9.273,44.702,13.985,68.472,13.985c23.782,0,46.819-4.712,68.472-13.985   c1.28-0.547,2.269-1.559,2.769-2.839C151.656,77.844,151.633,76.459,151.086,75.203z"/></g></svg>
